# xmcd
#
# Track frame offsets: 
#        150
#        16531
#        31747
#        42426
#        53536
#        59576
#        74266
#        77287
#        88820
#        104408
#        117173
#        131158
#        146508
#        157186
#        170000
#        190682
#        209419
#
# Disc length: 3062 seconds
#
# Revision: 0
# Processed by: cddbd v1.5.2PL0 Copyright (c) Steve Scherf et al.
# Submitted via: ExactAudioCopyFreeDBPlugin 1.0
#
DISCID=e60bf411
DTITLE=St. Thomas - The Hamburg Monkey-Tapes
DYEAR=2001
DGENRE=Country
TTITLE0=The cool song (FSK 15-10-01)
TTITLE1=With a feather (FSK 15-10-01)
TTITLE2=Waltz (w.Ai Phoenix) (FSK 12-03-01)
TTITLE3=Mysterious Walks (FSK 12-03-01)
TTITLE4=Fussball Rede (FSK 15-10-01)
TTITLE5=The charity ego (Tanzhalle St.Pauli)
TTITLE6=Swedish sailor (FSK 15-10-01)
TTITLE7=Bookstore (FSK 15-10-01)
TTITLE8=A nice bottle of wine (FSK 15-10-01)
TTITLE9=Invitation (Tanzhalle St.Pauli)
TTITLE10=Revolution is grey (w.Ai Phoenix) (12-03-02)
TTITLE11=Into the forest (FSK 15-10-01)
TTITLE12=Born again (Tanzhalle St.Pauli)
TTITLE13=Let's go down to the water (FSK 15-10-01)
TTITLE14=Take a dance with me (FSK 15-10-01)
TTITLE15=Walk with me (FSK 15-10-01)
TTITLE16=I'm coming home (FSK 15-10-01)
EXTD=
EXTT0=
EXTT1=
EXTT2=
EXTT3=
EXTT4=
EXTT5=
EXTT6=
EXTT7=
EXTT8=
EXTT9=
EXTT10=
EXTT11=
EXTT12=
EXTT13=
EXTT14=
EXTT15=
EXTT16=
PLAYORDER=
